<mxfile host="app.diagrams.net" modified="2021-10-29T10:54:07.009Z" agent="5.0 (Windows)" etag="ikb97ZHSt6PW7nPRvWVG" version="15.5.2" type="github">
  <diagram id="MhX_Fh0cY5UVpQnXWGEK" name="Page-1">
    <mxGraphModel dx="1038" dy="564" grid="1" gridSize="10" guides="1" tooltips="1" connect="1" arrows="1" fold="1" page="1" pageScale="1" pageWidth="850" pageHeight="1100" math="0" shadow="0">
      <root>
        <mxCell id="0" />
        <mxCell id="1" parent="0" />
        <mxCell id="Y-RGzD8ObDxHajr9Aqxz-4" value="Reset" style="ellipse;whiteSpace=wrap;html=1;aspect=fixed;" vertex="1" parent="1">
          <mxGeometry x="380" y="90" width="90" height="90" as="geometry" />
        </mxCell>
        <mxCell id="Y-RGzD8ObDxHajr9Aqxz-10" value="" style="ellipse;whiteSpace=wrap;html=1;aspect=fixed;" vertex="1" parent="1">
          <mxGeometry x="170" y="240" width="90" height="90" as="geometry" />
        </mxCell>
        <mxCell id="Y-RGzD8ObDxHajr9Aqxz-11" value="Data Out" style="text;html=1;strokeColor=none;fillColor=none;align=center;verticalAlign=middle;whiteSpace=wrap;rounded=0;" vertex="1" parent="1">
          <mxGeometry x="170" y="240" width="90" height="90" as="geometry" />
        </mxCell>
        <mxCell id="Y-RGzD8ObDxHajr9Aqxz-13" value="LFSR" style="ellipse;whiteSpace=wrap;html=1;aspect=fixed;" vertex="1" parent="1">
          <mxGeometry x="590" y="240" width="90" height="90" as="geometry" />
        </mxCell>
        <mxCell id="Y-RGzD8ObDxHajr9Aqxz-14" value="Seed Input" style="ellipse;whiteSpace=wrap;html=1;aspect=fixed;" vertex="1" parent="1">
          <mxGeometry x="380" y="410" width="90" height="90" as="geometry" />
        </mxCell>
        <mxCell id="Y-RGzD8ObDxHajr9Aqxz-17" value="" style="curved=1;endArrow=classic;html=1;rounded=0;entryX=0.989;entryY=0.222;entryDx=0;entryDy=0;entryPerimeter=0;exitX=1;exitY=0;exitDx=0;exitDy=0;" edge="1" parent="1" source="Y-RGzD8ObDxHajr9Aqxz-13" target="Y-RGzD8ObDxHajr9Aqxz-4">
          <mxGeometry width="50" height="50" relative="1" as="geometry">
            <mxPoint x="680" y="110" as="sourcePoint" />
            <mxPoint x="730" y="60" as="targetPoint" />
            <Array as="points">
              <mxPoint x="730" y="110" />
              <mxPoint x="640" y="80" />
            </Array>
          </mxGeometry>
        </mxCell>
        <mxCell id="Y-RGzD8ObDxHajr9Aqxz-19" value="" style="curved=1;endArrow=classic;html=1;rounded=0;exitX=1;exitY=0;exitDx=0;exitDy=0;entryX=0;entryY=1;entryDx=0;entryDy=0;" edge="1" parent="1" source="Y-RGzD8ObDxHajr9Aqxz-14" target="Y-RGzD8ObDxHajr9Aqxz-13">
          <mxGeometry width="50" height="50" relative="1" as="geometry">
            <mxPoint x="510" y="390" as="sourcePoint" />
            <mxPoint x="560" y="340" as="targetPoint" />
            <Array as="points">
              <mxPoint x="450" y="330" />
              <mxPoint x="590" y="360" />
            </Array>
          </mxGeometry>
        </mxCell>
        <mxCell id="Y-RGzD8ObDxHajr9Aqxz-21" value="" style="curved=1;endArrow=classic;html=1;rounded=0;exitX=0.5;exitY=1;exitDx=0;exitDy=0;entryX=1;entryY=1;entryDx=0;entryDy=0;" edge="1" parent="1" source="Y-RGzD8ObDxHajr9Aqxz-13" target="Y-RGzD8ObDxHajr9Aqxz-14">
          <mxGeometry width="50" height="50" relative="1" as="geometry">
            <mxPoint x="630" y="420" as="sourcePoint" />
            <mxPoint x="580" y="470" as="targetPoint" />
            <Array as="points">
              <mxPoint x="620" y="360" />
              <mxPoint x="610" y="487" />
            </Array>
          </mxGeometry>
        </mxCell>
        <mxCell id="Y-RGzD8ObDxHajr9Aqxz-22" value="" style="curved=1;endArrow=classic;html=1;rounded=0;entryX=0;entryY=0;entryDx=0;entryDy=0;exitX=1;exitY=0.5;exitDx=0;exitDy=0;" edge="1" parent="1" source="Y-RGzD8ObDxHajr9Aqxz-11" target="Y-RGzD8ObDxHajr9Aqxz-14">
          <mxGeometry width="50" height="50" relative="1" as="geometry">
            <mxPoint x="230" y="320" as="sourcePoint" />
            <mxPoint x="450" y="270" as="targetPoint" />
            <Array as="points">
              <mxPoint x="340" y="330" />
              <mxPoint x="360" y="380" />
            </Array>
          </mxGeometry>
        </mxCell>
        <mxCell id="Y-RGzD8ObDxHajr9Aqxz-24" value="" style="curved=1;endArrow=classic;html=1;rounded=0;entryX=0.5;entryY=1;entryDx=0;entryDy=0;exitX=0;exitY=1;exitDx=0;exitDy=0;" edge="1" parent="1" source="Y-RGzD8ObDxHajr9Aqxz-14" target="Y-RGzD8ObDxHajr9Aqxz-11">
          <mxGeometry width="50" height="50" relative="1" as="geometry">
            <mxPoint x="200" y="460" as="sourcePoint" />
            <mxPoint x="250" y="410" as="targetPoint" />
            <Array as="points">
              <mxPoint x="250" y="460" />
              <mxPoint x="200" y="410" />
            </Array>
          </mxGeometry>
        </mxCell>
        <mxCell id="Y-RGzD8ObDxHajr9Aqxz-25" value="" style="curved=1;endArrow=classic;html=1;rounded=0;exitX=0.5;exitY=0;exitDx=0;exitDy=0;entryX=0.5;entryY=1;entryDx=0;entryDy=0;" edge="1" parent="1" source="Y-RGzD8ObDxHajr9Aqxz-14" target="Y-RGzD8ObDxHajr9Aqxz-4">
          <mxGeometry width="50" height="50" relative="1" as="geometry">
            <mxPoint x="400" y="320" as="sourcePoint" />
            <mxPoint x="450" y="270" as="targetPoint" />
            <Array as="points">
              <mxPoint x="450" y="320" />
              <mxPoint x="400" y="270" />
            </Array>
          </mxGeometry>
        </mxCell>
        <mxCell id="Y-RGzD8ObDxHajr9Aqxz-27" value="" style="curved=1;endArrow=classic;html=1;rounded=0;exitX=0.5;exitY=0;exitDx=0;exitDy=0;entryX=0;entryY=0.5;entryDx=0;entryDy=0;" edge="1" parent="1" source="Y-RGzD8ObDxHajr9Aqxz-11" target="Y-RGzD8ObDxHajr9Aqxz-4">
          <mxGeometry width="50" height="50" relative="1" as="geometry">
            <mxPoint x="250" y="200" as="sourcePoint" />
            <mxPoint x="300" y="150" as="targetPoint" />
            <Array as="points">
              <mxPoint x="220" y="190" />
              <mxPoint x="250" y="150" />
            </Array>
          </mxGeometry>
        </mxCell>
        <mxCell id="Y-RGzD8ObDxHajr9Aqxz-29" value="" style="curved=1;endArrow=classic;html=1;rounded=0;entryX=0;entryY=0;entryDx=0;entryDy=0;" edge="1" parent="1" target="Y-RGzD8ObDxHajr9Aqxz-13">
          <mxGeometry width="50" height="50" relative="1" as="geometry">
            <mxPoint x="460" y="160" as="sourcePoint" />
            <mxPoint x="560" y="170" as="targetPoint" />
            <Array as="points">
              <mxPoint x="510" y="170" />
            </Array>
          </mxGeometry>
        </mxCell>
        <mxCell id="Y-RGzD8ObDxHajr9Aqxz-30" value="&lt;b&gt;rstn =0&lt;/b&gt;" style="text;html=1;strokeColor=none;fillColor=none;align=center;verticalAlign=middle;whiteSpace=wrap;rounded=0;" vertex="1" parent="1">
          <mxGeometry x="540" y="60" width="60" height="30" as="geometry" />
        </mxCell>
        <mxCell id="Y-RGzD8ObDxHajr9Aqxz-31" value="&lt;b&gt;rstn =0&lt;/b&gt;" style="text;html=1;strokeColor=none;fillColor=none;align=center;verticalAlign=middle;whiteSpace=wrap;rounded=0;" vertex="1" parent="1">
          <mxGeometry x="410" y="220" width="60" height="30" as="geometry" />
        </mxCell>
        <mxCell id="Y-RGzD8ObDxHajr9Aqxz-32" value="&lt;b&gt;rstn =0&lt;/b&gt;" style="text;html=1;strokeColor=none;fillColor=none;align=center;verticalAlign=middle;whiteSpace=wrap;rounded=0;" vertex="1" parent="1">
          <mxGeometry x="220" y="120" width="60" height="30" as="geometry" />
        </mxCell>
        <mxCell id="Y-RGzD8ObDxHajr9Aqxz-34" value="" style="curved=1;endArrow=classic;html=1;rounded=0;exitX=0.778;exitY=0.889;exitDx=0;exitDy=0;exitPerimeter=0;entryX=1;entryY=0.5;entryDx=0;entryDy=0;" edge="1" parent="1" source="Y-RGzD8ObDxHajr9Aqxz-13" target="Y-RGzD8ObDxHajr9Aqxz-13">
          <mxGeometry width="50" height="50" relative="1" as="geometry">
            <mxPoint x="730" y="330" as="sourcePoint" />
            <mxPoint x="780" y="280" as="targetPoint" />
            <Array as="points">
              <mxPoint x="780" y="330" />
              <mxPoint x="740" y="260" />
            </Array>
          </mxGeometry>
        </mxCell>
        <mxCell id="Y-RGzD8ObDxHajr9Aqxz-37" value="" style="curved=1;endArrow=classic;html=1;rounded=0;exitX=0.256;exitY=0.933;exitDx=0;exitDy=0;exitPerimeter=0;" edge="1" parent="1" source="Y-RGzD8ObDxHajr9Aqxz-14">
          <mxGeometry width="50" height="50" relative="1" as="geometry">
            <mxPoint x="400" y="580" as="sourcePoint" />
            <mxPoint x="441" y="494" as="targetPoint" />
            <Array as="points">
              <mxPoint x="390" y="590" />
              <mxPoint x="460" y="540" />
            </Array>
          </mxGeometry>
        </mxCell>
        <mxCell id="Y-RGzD8ObDxHajr9Aqxz-38" value="" style="curved=1;endArrow=classic;html=1;rounded=0;entryX=0.111;entryY=0.222;entryDx=0;entryDy=0;entryPerimeter=0;" edge="1" parent="1" target="Y-RGzD8ObDxHajr9Aqxz-11">
          <mxGeometry width="50" height="50" relative="1" as="geometry">
            <mxPoint x="180" y="308" as="sourcePoint" />
            <mxPoint x="150" y="270" as="targetPoint" />
            <Array as="points">
              <mxPoint x="110" y="320" />
              <mxPoint x="60" y="308" />
              <mxPoint x="70" y="260" />
            </Array>
          </mxGeometry>
        </mxCell>
        <mxCell id="Y-RGzD8ObDxHajr9Aqxz-39" value="&lt;b&gt;rstn =1,get_random&lt;/b&gt;" style="text;html=1;strokeColor=none;fillColor=none;align=center;verticalAlign=middle;whiteSpace=wrap;rounded=0;" vertex="1" parent="1">
          <mxGeometry x="40" y="320" width="130" height="30" as="geometry" />
        </mxCell>
        <mxCell id="Y-RGzD8ObDxHajr9Aqxz-40" value="&lt;b&gt;rstn =1,load_seed&lt;/b&gt;" style="text;html=1;strokeColor=none;fillColor=none;align=center;verticalAlign=middle;whiteSpace=wrap;rounded=0;" vertex="1" parent="1">
          <mxGeometry x="370" y="570" width="130" height="30" as="geometry" />
        </mxCell>
        <mxCell id="Y-RGzD8ObDxHajr9Aqxz-41" value="&lt;div&gt;&lt;b&gt;rstn =1,l&lt;/b&gt;&lt;/div&gt;&lt;div&gt;&lt;b&gt;get_random =1&lt;/b&gt;&lt;br&gt;&lt;/div&gt;" style="text;html=1;strokeColor=none;fillColor=none;align=center;verticalAlign=middle;whiteSpace=wrap;rounded=0;" vertex="1" parent="1">
          <mxGeometry x="180" y="470" width="130" height="30" as="geometry" />
        </mxCell>
        <mxCell id="Y-RGzD8ObDxHajr9Aqxz-42" value="&lt;div&gt;&lt;b&gt;rstn =1,load_seed=1&lt;/b&gt;&lt;/div&gt;" style="text;html=1;strokeColor=none;fillColor=none;align=center;verticalAlign=middle;whiteSpace=wrap;rounded=0;" vertex="1" parent="1">
          <mxGeometry x="230" y="360" width="130" height="30" as="geometry" />
        </mxCell>
        <mxCell id="Y-RGzD8ObDxHajr9Aqxz-44" value="&lt;div&gt;&lt;b&gt;rstn =1,load_seed=0,&lt;/b&gt;&lt;/div&gt;&lt;div&gt;&lt;b&gt;get_random =0&lt;/b&gt;&lt;br&gt;&lt;/div&gt;" style="text;html=1;strokeColor=none;fillColor=none;align=center;verticalAlign=middle;whiteSpace=wrap;rounded=0;" vertex="1" parent="1">
          <mxGeometry x="690" y="340" width="130" height="30" as="geometry" />
        </mxCell>
        <mxCell id="Y-RGzD8ObDxHajr9Aqxz-45" value="&lt;div&gt;&lt;b&gt;rstn =1,load_seed=1&lt;/b&gt;&lt;/div&gt;" style="text;html=1;strokeColor=none;fillColor=none;align=center;verticalAlign=middle;whiteSpace=wrap;rounded=0;" vertex="1" parent="1">
          <mxGeometry x="530" y="490" width="130" height="30" as="geometry" />
        </mxCell>
        <mxCell id="Y-RGzD8ObDxHajr9Aqxz-46" value="&lt;div&gt;&lt;b&gt;rstn =1,load_seed=0&lt;/b&gt;&lt;/div&gt;" style="text;html=1;strokeColor=none;fillColor=none;align=center;verticalAlign=middle;whiteSpace=wrap;rounded=0;" vertex="1" parent="1">
          <mxGeometry x="460" y="360" width="130" height="30" as="geometry" />
        </mxCell>
        <mxCell id="Y-RGzD8ObDxHajr9Aqxz-49" value="" style="curved=1;endArrow=classic;html=1;rounded=0;entryX=0.5;entryY=0;entryDx=0;entryDy=0;" edge="1" parent="1" source="Y-RGzD8ObDxHajr9Aqxz-4" target="Y-RGzD8ObDxHajr9Aqxz-4">
          <mxGeometry width="50" height="50" relative="1" as="geometry">
            <mxPoint x="340" y="110" as="sourcePoint" />
            <mxPoint x="390" y="60" as="targetPoint" />
            <Array as="points">
              <mxPoint x="340" y="60" />
              <mxPoint x="360" y="20" />
            </Array>
          </mxGeometry>
        </mxCell>
        <mxCell id="Y-RGzD8ObDxHajr9Aqxz-50" value="&lt;b&gt;rstn =0&lt;/b&gt;" style="text;html=1;strokeColor=none;fillColor=none;align=center;verticalAlign=middle;whiteSpace=wrap;rounded=0;" vertex="1" parent="1">
          <mxGeometry x="290" y="40" width="60" height="30" as="geometry" />
        </mxCell>
        <mxCell id="Y-RGzD8ObDxHajr9Aqxz-52" value="&lt;b&gt;Default&lt;/b&gt;" style="text;html=1;strokeColor=none;fillColor=none;align=center;verticalAlign=middle;whiteSpace=wrap;rounded=0;" vertex="1" parent="1">
          <mxGeometry x="530" y="170" width="60" height="30" as="geometry" />
        </mxCell>
      </root>
    </mxGraphModel>
  </diagram>
</mxfile>
